<svg xmlns="http://www.w3.org/2000/svg" viewBox="0 0 227.83 41.06"><defs><style>.cls-1{fill:#0b71b9;}.cls-2{fill:#ea282c;}</style></defs><g id="Layer_2" data-name="Layer 2"><g id="Layer_1-2" data-name="Layer 1"><path class="cls-1" d="M89.49,0c4,2.27,4,2.27.66,5.38L88.68,6.69c-.55-.63-1-1.27-1.61-1.82s-1-1.06-1.89-.65A1.7,1.7,0,0,0,84.2,6a1.64,1.64,0,0,0,1.46,1.66,38.94,38.94,0,0,0,3.91.17l1.06.07c.15,1.75-.6,2.47-2.26,2.13s-2.08.52-2.32,2a112,112,0,0,1-3.56,16.1,22.6,22.6,0,0,1-5.66,9.66A11.15,11.15,0,0,1,67.71,41a6.84,6.84,0,0,1-6.25-6.63c.06-3.31,2.63-5.61,6.41-5.68,2,0,4.07,0,6.11,0,.47,0,1.26-.34,1.24.64,0,.82-.32,1.3-1.31,1.26-1.89-.08-3.79-.05-5.68,0-2.59,0-4.47,1.77-4.49,4A4.55,4.55,0,0,0,68,38.86a6.44,6.44,0,0,0,6.76-3.35c2.37-3.89,2.86-8.32,3.74-12.63.72-3.55,1.17-7.15,1.77-10.72.21-1.3.26-2.35-1.59-2.08-.43.06-1.14.29-1.28-.38S77.44,8.12,78,8C80.61,7.38,81.47,5,82.93,3.3A12.77,12.77,0,0,1,86.87,0Z"/><path class="cls-1" d="M0,28.77c3-.34,3.82-1.1,4.37-4.13q1.56-8.55,3.14-17.1c.5-2.68.06-3.29-2.69-3.75.32-2,.32-2,2.08-2,3.42,0,6.84,0,10.25,0,.9,0,1.65-.09,1.77,1.23s-.88.84-1.41.92A2.85,2.85,0,0,0,14.9,6.42Q13.15,16,11.42,25.67a2.36,2.36,0,0,0,1.85,3c.44.14,1.35-.17,1,.91-.23.68-.53,1.08-1.37,1.06-2.54-.06-5.09,0-7.64,0-1.74,0-3.49,0-5.23-.07Z"/><path class="cls-2" d="M198.18,12.25c1.58.58,2.93.63,3.93,1.48,2.87,2.45,2.93,6,.07,9.13a11.72,11.72,0,0,1-9.34,3.91c-4.15-.14-8.29-.33-12.43-.24-.45,0-1.14.36-1.32-.3s.66-1.06,1-1.12c2.75-.4,3.32-2.52,3.79-4.69A134.79,134.79,0,0,0,186.36,6.3c.15-1.46.2-3-1.88-3.31a.77.77,0,0,1-.65-1c.14-.46.6-.34.92-.32,3.82.27,7.61-.5,11.47-.11,2.06.21,4.05-.24,6.11.85,2.71,1.45,3.42,4,1.37,6.34C202.31,10.38,200.4,11.21,198.18,12.25ZM194.79,3c-1.18-.18-1.91.39-2.11,1.84s-.66,2.81-.9,4.24c-.77,4.48-1.54,9-2.21,13.47-.34,2.29.73,3.15,2.9,2.5a7.39,7.39,0,0,0,4.78-4.7c1.41-3.6,0-6-3.76-6.68-.57-.09-1.24-.14-1.3-.89s.69-.58,1.09-.75c2.15-.89,4-2.09,4.73-4.45C198.8,5.08,197.45,3.05,194.79,3Z"/><path class="cls-1" d="M141.66,3.38c.15-.82.07-1.58,1.25-1.68,2.45-.22,4.91-.54,7.34-.95C151.5.54,151.57,1,151.38,2c-1.19,6.33-2.29,12.69-3.56,19-.36,1.79-.1,2.84,1.83,3.11.5.08,1,.09,1,.86s-.59.68-1.11.75c-2.3.29-4.63.49-6.9,1-1.71.35-1.8-.33-1.54-1.67q1.24-6.4,2.39-12.82c.12-.67.59-1.56-.13-2s-1.42.11-2,.45a6,6,0,0,0-2.46,2.69,17.45,17.45,0,0,0-1.93,7.53c0,1.69.2,3.39,2,4.23.5.22.92.37.8,1.06s-.69.8-1.29.87c-5.64.73-9-2.85-7.79-8.41C132.05,11.9,136.12,8.29,143,7.85c1.19-.08,1.45-.56,1.55-1.56s.29-2.25-1.1-2.7A8.63,8.63,0,0,0,141.66,3.38Z"/><path class="cls-1" d="M42.68,20.78c0,1.87.28,3.53,2.18,4.39.42.19.79.29.65.9s-.38.89-1,.95c-6,.61-9.05-2.35-8.12-7.9,1.05-6.23,5-11.22,12.51-11.28,1.91,0,1.22-1.49,1.49-2.32.35-1.06-.39-1.72-1.45-2-.5-.15-1.45.42-1.38-.77s.86-1,1.59-1.05c2-.26,4-.48,6-.86C57,.5,57.42.94,57,2.82c-1.23,6.1-2.22,12.26-3.43,18.36-.34,1.72,0,2.67,1.78,3,.47.07,1.09,0,1,.82s-.56.71-1.1.77c-2.37.3-4.76.54-7.11,1-1.38.25-1.63-.08-1.37-1.39.84-4.26,1.62-8.54,2.37-12.82.13-.74.69-1.79,0-2.23s-1.87.11-2.57.71C43.56,13.55,43.16,17.19,42.68,20.78Z"/><path class="cls-2" d="M217.87,25.3c-.19,1-.67,1.33-1.55,1.32-4.29,0-8.58,0-12.87,0-.46,0-1.12.23-1.24-.5-.09-.57.62-.73.88-.77,3.21-.47,3.8-2.95,4.29-5.48.85-4.46,1.69-8.92,2.44-13.4.26-1.54-.07-2.9-2-3.22-.4-.07-1.37.37-1.17-.69.15-.79.82-.84,1.53-.84,4.07,0,8.14-.05,12.21,0a8.12,8.12,0,0,1,3.17.64c3.42,1.5,4.46,2.79,4.27,5.39a8.5,8.5,0,0,1-1.31,3.88c-2.52,4-6.52,5.56-10.83,6.64a1,1,0,0,1-1.24-.6c-.32-.86.54-.87,1-1.12,3.73-2.15,6-5.18,6-9.64a3.55,3.55,0,0,0-1.44-3c-2-1.5-3.59-1-4.06,1.38-1.08,5.46-2.06,11-3,16.43-.33,1.82.39,2.94,2.31,3.17C216,25,216.84,25.14,217.87,25.3Z"/><path class="cls-1" d="M25.11,7.78c.17.86-.4,1.47,0,2.18a14.13,14.13,0,0,1,5-2.44c2.93-.62,4.73.61,4.94,3.59.23,3.29-.86,6.44-1.32,9.65-.21,1.44-1,3.18,1.54,3.45.47.05.51.45.44.83a.81.81,0,0,1-.75.67l-7.34.93c-1,.14-1-.34-.85-1.14.63-3.12,1.2-6.25,1.79-9.38.06-.36.16-.71.19-1.07.13-1.59.17-3.32-1.89-3.52C25,11.34,24.32,12.74,24,14.42c-.58,3.5-1.27,7-1.85,10.48-.22,1.34-.73,1.89-2.23,1.86-4.2-.08-4.2,0-3.46-4.08.53-3,1.06-6,1.61-9,.26-1.44.44-2.82-1.47-3.24-.49-.11-.5-.41-.48-.79,0-.71.6-.77,1.08-.84C19.81,8.48,22.39,8.14,25.11,7.78Z"/><path class="cls-1" d="M118.09,27.5a8.65,8.65,0,0,1-8.77-8.88c-.09-6,5.17-11.48,11.07-11.47a8.8,8.8,0,0,1,8.8,9.13C129.12,22.26,123.93,27.51,118.09,27.5Zm4.57-13.17c0-.72,0-1.45,0-2.17-.09-1.21-.42-2.34-1.75-2.73s-2.21.58-2.75,1.6a20.56,20.56,0,0,0-2.3,11.12c.07,1.22.28,2.8,1.9,3.08s2.48-1,3.09-2.26A20.08,20.08,0,0,0,122.66,14.33Z"/><path class="cls-1" d="M96.57,27.5a8.72,8.72,0,0,1-8.76-8.91c-.06-6,5.24-11.45,11.14-11.44a8.77,8.77,0,0,1,8.75,9.17C107.57,22.35,102.42,27.53,96.57,27.5Zm4.7-12.7c0-1,0-1.38,0-1.74-.08-1.54-.12-3.28-2-3.65S96.74,10.65,96.18,12a21.84,21.84,0,0,0-1.84,9.73c.07,1.43.15,3.16,1.91,3.52s2.64-1.21,3.28-2.6A22.44,22.44,0,0,0,101.27,14.8Z"/><path class="cls-1" d="M76.45,16.21A11.41,11.41,0,0,1,65.26,27.5c-5,0-8.6-3.87-8.57-9,0-6.14,5.23-11.41,11.17-11.33C72.82,7.22,76.46,11.06,76.45,16.21ZM63.13,20.63c0,.09,0,.67.07,1.25.15,1.37.18,3,1.85,3.32s2.59-1.08,3.19-2.4A21.13,21.13,0,0,0,70,12.22c-.11-1.23-.42-2.55-1.93-2.82s-2.32,1-2.89,2.14A23.13,23.13,0,0,0,63.13,20.63Z"/><path class="cls-1" d="M216,28.75c-.2,1.45-.87,1.89-2.11,1.87-3.49-.06-7,0-10.47,0q-58.69,0-117.4,0c-.72,0-2,.64-2.15-.56C83.68,28.49,85,28.69,86,28.69H214.57C215,28.69,215.43,28.73,216,28.75Z"/><path class="cls-2" d="M178.5,19c-.35,2-.65,3.92-1,5.83-.09.44,0,1.25-.58,1.27-3.69.09-7.18,2.06-11,.81C160,25,157.3,19.69,159,12.9A16,16,0,0,1,172,1c3-.43,5.77.83,8.66,1.15.66.07.57.56.5,1-.31,1.85-.62,3.71-1,5.56a.93.93,0,0,1-1.05.88,1.19,1.19,0,0,1-1-1,15.57,15.57,0,0,0-.68-2.73c-1.4-3.39-4.64-4.12-7.34-1.63s-3.82,5.73-4.52,9.17a21.25,21.25,0,0,0-.2,8.22c.66,3.51,3.74,5,6.91,3.27a8,8,0,0,0,3.87-4.25A2,2,0,0,1,178.5,19Z"/><path class="cls-1" d="M61.93,28.69c-1,1.79-2.31,1.94-3.89,1.93-13.44,0-26.87,0-40.31-.05-.55,0-1.63.55-1.55-.79.06-1,.72-1.1,1.54-1.1Z"/></g></g></svg>