<svg xmlns="http://www.w3.org/2000/svg" viewBox="0 0 266.66 28.87"><defs><style>.cls-1{fill:#0052a3;}.cls-2{fill:#b20016;}</style></defs><g id="Layer_2" data-name="Layer 2"><g id="Layer_1-2" data-name="Layer 1"><path class="cls-1" d="M185.92,2.8a2.74,2.74,0,0,0-1-1.18,2.62,2.62,0,0,0-1.45-.43A2.64,2.64,0,0,0,181,2.83l-9.25,21.48a3,3,0,0,0-.21.77,2.41,2.41,0,0,0-.18-.7,3.06,3.06,0,0,0-.56-.85A2.62,2.62,0,0,0,170,23a2.68,2.68,0,0,0-1.06-.22l-10.74,0V3.86a2.59,2.59,0,0,0-.8-1.91,3.09,3.09,0,0,0-.84-.54,2.72,2.72,0,0,0-1.06-.22,2.67,2.67,0,0,0-1,.22,2.71,2.71,0,0,0-.85.55,2.55,2.55,0,0,0-.57.84,2.48,2.48,0,0,0-.22,1.06V25.44a2.62,2.62,0,0,0,.55,1.64,2.58,2.58,0,0,0,1.36.91.62.62,0,0,0,.23.07,1.1,1.1,0,0,0,.31,0h13.68a2.65,2.65,0,0,0,1.9-.74,2.49,2.49,0,0,0,.74-1.41,2.13,2.13,0,0,0,.1.42,2.41,2.41,0,0,0,.51.87,2.68,2.68,0,0,0,.92.63,3.17,3.17,0,0,0,1.13.23,2.63,2.63,0,0,0,1.45-.41,2.66,2.66,0,0,0,1-1.21l1.39-3.34H189l1.42,3.35a2.64,2.64,0,0,0,1,1.19,2.67,2.67,0,0,0,1.46.42,2.63,2.63,0,0,0,1.13-.24,2.4,2.4,0,0,0,1.38-1.53,2.89,2.89,0,0,0-.13-2Zm-5.69,15L183.5,10l3.22,7.74Z"/><path class="cls-1" d="M218.06,23.49,209,14.24l8.86-8.38a2.76,2.76,0,0,0,.64-.89,2.89,2.89,0,0,0,.25-1,2.36,2.36,0,0,0-.14-1,2.55,2.55,0,0,0-.56-.9,2.92,2.92,0,0,0-.91-.63,2.59,2.59,0,0,0-1.06-.23,2.7,2.7,0,0,0-1,.19,2.54,2.54,0,0,0-.87.56l-12,11.38V3.86A2.68,2.68,0,0,0,202,2.8a2.65,2.65,0,0,0-.59-.85,3,3,0,0,0-.84-.54,2.62,2.62,0,0,0-2.1,0,2.5,2.5,0,0,0-.85.55,2.58,2.58,0,0,0-.58.84,2.64,2.64,0,0,0-.21,1.06V25.44a2.65,2.65,0,0,0,.21,1,2.56,2.56,0,0,0,.58.86,2.75,2.75,0,0,0,2.95.55,3,3,0,0,0,.84-.55,2.4,2.4,0,0,0,.59-.86,2.49,2.49,0,0,0,.22-1V20.61l2.85-2.71,9.24,9.38a2.49,2.49,0,0,0,.88.62,2.39,2.39,0,0,0,1,.2,2.45,2.45,0,0,0,1.83-.77,2.83,2.83,0,0,0,.6-.87,2.43,2.43,0,0,0,.22-1,2.74,2.74,0,0,0-.19-1A2.56,2.56,0,0,0,218.06,23.49Z"/><path class="cls-1" d="M241.53,5a2.67,2.67,0,0,0,.21-1.06,2.67,2.67,0,0,0-.21-1.06A2.88,2.88,0,0,0,241,2a2.65,2.65,0,0,0-1.9-.8h-16.5a2.67,2.67,0,0,0-1.05.22,2.64,2.64,0,0,0-.86.57,2.69,2.69,0,0,0-.56.84,2.48,2.48,0,0,0-.22,1.06,2.65,2.65,0,0,0,.21,1,2.69,2.69,0,0,0,.57.86,2.59,2.59,0,0,0,.86.59,2.66,2.66,0,0,0,1.05.21h5.55V25.44a2.65,2.65,0,0,0,.21,1,2.72,2.72,0,0,0,.58.86,2.84,2.84,0,0,0,.84.55,2.58,2.58,0,0,0,1,.21,2.78,2.78,0,0,0,1.91-.76,2.3,2.3,0,0,0,.6-.86,2.65,2.65,0,0,0,.21-1V6.58h5.56a2.71,2.71,0,0,0,1.06-.21A2.84,2.84,0,0,0,241,5.8,2.71,2.71,0,0,0,241.53,5Z"/><path class="cls-1" d="M265.59,9.12a13.7,13.7,0,0,0-7.28-7.28A13.54,13.54,0,0,0,253,.77a13.27,13.27,0,0,0-3.64.49,13.82,13.82,0,0,0-3.25,1.38,13,13,0,0,0-2.76,2.13,13.37,13.37,0,0,0-2.12,2.78,13.81,13.81,0,0,0-1.37,3.26,13.66,13.66,0,0,0-.48,3.64,13.46,13.46,0,0,0,1.06,5.31,13.94,13.94,0,0,0,2.9,4.34A13.69,13.69,0,0,0,247.64,27,13.42,13.42,0,0,0,253,28.1a13.72,13.72,0,0,0,3.64-.48,13,13,0,0,0,3.27-1.38,14,14,0,0,0,2.77-2.14,13.19,13.19,0,0,0,2.14-2.76,13.9,13.9,0,0,0,1.38-3.26,13.25,13.25,0,0,0,.49-3.63A13.39,13.39,0,0,0,265.59,9.12ZM253,22.71a8.22,8.22,0,0,1-3.22-.63,8.4,8.4,0,0,1-2.61-1.76,8.23,8.23,0,0,1-1.77-2.63,8.38,8.38,0,0,1,0-6.47,8.56,8.56,0,0,1,1.77-2.64,8.43,8.43,0,0,1,2.61-1.77,8.33,8.33,0,0,1,6.45,0,8.33,8.33,0,0,1,2.64,1.77,8.74,8.74,0,0,1,1.77,2.64,8.5,8.5,0,0,1,0,6.47,8.57,8.57,0,0,1-1.77,2.63A8.34,8.34,0,0,1,253,22.71Z"/><path class="cls-1" d="M17.33,4A10.55,10.55,0,0,0,14.1,1.78a10,10,0,0,0-4-.8H2.69a2.66,2.66,0,0,0-1,.21,2.56,2.56,0,0,0-.86.58,2.65,2.65,0,0,0-.57.85A2.72,2.72,0,0,0,0,3.69V25.23a2.65,2.65,0,0,0,.21,1,2.57,2.57,0,0,0,.58.85,2.92,2.92,0,0,0,.85.56,2.66,2.66,0,0,0,1.05.21,2.63,2.63,0,0,0,1.05-.21,2.84,2.84,0,0,0,.84-.55,2.38,2.38,0,0,0,.6-.86,2.65,2.65,0,0,0,.21-1v-4h4.7a10,10,0,0,0,4-.79,10.13,10.13,0,0,0,5.43-5.36,9.81,9.81,0,0,0,.8-3.94,10.13,10.13,0,0,0-3-7.21ZM10.18,15.86H5.39V6.37h4.79A4.32,4.32,0,0,1,12,6.76a4.77,4.77,0,0,1,1.51,1.07,5.54,5.54,0,0,1,1,1.54,4.59,4.59,0,0,1,.37,1.79,4.48,4.48,0,0,1-.36,1.77A4.83,4.83,0,0,1,12,15.48,4.64,4.64,0,0,1,10.18,15.86Z"/><path class="cls-1" d="M41.84,1.78A2.7,2.7,0,0,0,41,1.19,2.64,2.64,0,0,0,39.93,1H23.44a2.66,2.66,0,0,0-1.05.21,2.72,2.72,0,0,0-.86.58,2.6,2.6,0,0,0-.57.84,2.73,2.73,0,0,0,0,2.1,2.69,2.69,0,0,0,.57.86,2.59,2.59,0,0,0,.86.59,2.66,2.66,0,0,0,1.05.21H29V25.23a2.65,2.65,0,0,0,.21,1,2.57,2.57,0,0,0,.58.85,3,3,0,0,0,.83.56,2.65,2.65,0,0,0,1,.21,2.72,2.72,0,0,0,1.07-.21,2.89,2.89,0,0,0,.85-.55,2.38,2.38,0,0,0,.6-.86,2.65,2.65,0,0,0,.21-1V6.37h5.55A2.64,2.64,0,0,0,41,6.16a2.76,2.76,0,0,0,.85-.57,2.9,2.9,0,0,0,.57-.84,2.71,2.71,0,0,0,.21-1.06,2.64,2.64,0,0,0-.21-1.06A2.88,2.88,0,0,0,41.84,1.78Z"/><path class="cls-1" d="M63.46,1.74a2.72,2.72,0,0,0-.86-.56,2.8,2.8,0,0,0-2.08,0,2.35,2.35,0,0,0-.87.57,2.6,2.6,0,0,0-.57.84,2.64,2.64,0,0,0-.21,1.06V25.23a2.65,2.65,0,0,0,.21,1,2.42,2.42,0,0,0,.58.85,2.79,2.79,0,0,0,.85.56,2.73,2.73,0,0,0,2.1,0,2.84,2.84,0,0,0,.84-.55,2.59,2.59,0,0,0,.81-1.9V3.65A2.48,2.48,0,0,0,64,2.59,2.52,2.52,0,0,0,63.46,1.74Z"/><path class="cls-1" d="M91.26,1.75a2.75,2.75,0,0,0-.82-.55,2.44,2.44,0,0,0-1-.22,2.72,2.72,0,0,0-1.07.21,2.89,2.89,0,0,0-.85.55,2.8,2.8,0,0,0-.6.84,2.54,2.54,0,0,0-.23,1.07v14.1L73.51,2a2.74,2.74,0,0,0-2.12-1,2.58,2.58,0,0,0-1.17.26,2.22,2.22,0,0,0-.81.65,2.56,2.56,0,0,0-.7,1.82V25.23a2.65,2.65,0,0,0,.21,1,2.42,2.42,0,0,0,.58.85,2.79,2.79,0,0,0,.85.56,2.73,2.73,0,0,0,2.1,0,2.84,2.84,0,0,0,.84-.55,2.59,2.59,0,0,0,.81-1.9V10.93L87.38,26.85a2.86,2.86,0,0,0,.83.74,2.36,2.36,0,0,0,1.1.3h.12a2.57,2.57,0,0,0,.9-.15,2.23,2.23,0,0,0,.69-.43,2.47,2.47,0,0,0,.74-.89A2.66,2.66,0,0,0,92,25.23V3.65a2.59,2.59,0,0,0-.2-1A2.36,2.36,0,0,0,91.26,1.75Z"/><path class="cls-1" d="M117,7.68A13.81,13.81,0,0,0,114.84,5a14.54,14.54,0,0,0-2.77-2.12,14,14,0,0,0-3.25-1.36A13,13,0,0,0,105.24,1H98.13a2.74,2.74,0,0,0-1,.2,2.44,2.44,0,0,0-.87.57,2.6,2.6,0,0,0-.57.84,2.64,2.64,0,0,0-.21,1.06V25.23a2.65,2.65,0,0,0,.21,1,2.42,2.42,0,0,0,.58.85,2.79,2.79,0,0,0,.85.56,2.67,2.67,0,0,0,1.06.21h7.09a13.3,13.3,0,0,0,5.25-1.05A13.87,13.87,0,0,0,114.84,24a13.69,13.69,0,0,0,3-4.26,12.63,12.63,0,0,0,1.1-5.22,13,13,0,0,0-.5-3.58A13.25,13.25,0,0,0,117,7.68Zm-4.13,9.85a8.13,8.13,0,0,1-1.76,2.55,8.87,8.87,0,0,1-2.6,1.77,7.85,7.85,0,0,1-3.17.65h-4.5V6.37h4.5a7.47,7.47,0,0,1,3.16.68,8.72,8.72,0,0,1,2.61,1.81,8.47,8.47,0,0,1,1.76,2.6,7.66,7.66,0,0,1,.63,3.06A7.42,7.42,0,0,1,112.87,17.53Z"/><circle class="cls-1" cx="39.95" cy="24.93" r="2.96"/><path class="cls-2" d="M135.61,22.21a7.78,7.78,0,1,1,7.77-7.77A7.79,7.79,0,0,1,135.61,22.21Zm0-14a6.24,6.24,0,1,0,6.23,6.24A6.25,6.25,0,0,0,135.61,8.2Z"/><path class="cls-2" d="M135.61,25.74a11.31,11.31,0,1,1,11.3-11.3A11.32,11.32,0,0,1,135.61,25.74Zm0-21.07a9.77,9.77,0,1,0,9.76,9.77A9.78,9.78,0,0,0,135.61,4.67Z"/><path class="cls-2" d="M135.61,28.87A14.44,14.44,0,1,1,150,14.44,14.45,14.45,0,0,1,135.61,28.87Zm0-27.33a12.9,12.9,0,1,0,12.89,12.9A12.91,12.91,0,0,0,135.61,1.54Z"/></g></g></svg>